<svg id="Layer_5" enable-background="new 0 0 64 64" height="512" viewBox="0 0 64 64" width="512" xmlns="http://www.w3.org/2000/svg"><path d="m61 61h2v2h-2z"/><path d="m1 61h2v2h-2z"/><path d="m57 51h-3v-6h2v-2h-17v-16.586l3-3v-4.414h-2.986c1.315-1.164 1.986-2.828 1.986-5 0-3.186-1.781-5.278-3.212-6.959-.96-1.126-1.788-2.1-1.788-3.041v-1.387l-1.316.438c-.076.025-1.015.351-1.925 1.139-1.375-2.586-3.414-3.135-3.516-3.161l-1.243-.31v1.281c0 1.585-.574 2.948-1.342 4.214-1.143-.277-2.35-.28-3.482.028-1.454-3.173-4.623-5.242-8.176-5.242-4.963 0-9 4.038-9 9 0 .362.025.723.068 1.08-2.867.45-5.068 2.929-5.068 5.92 0 3.309 2.691 6 6 6h15v.414l3 3v16.586h-17v2h2v6h-3v10h-2v2h54v-2h-2zm-13 4.917-7-2.917h14zm11-2.417v7l-8.4-3.5zm-13.6 3.5-9.4 3.917-9.4-3.917 9.4-3.917zm.6-6v-6h4v6zm-2 0h-4v-6h4zm-6 0h-4v-6h4zm-6 0h-4v-6h4zm-6 0h-4v-6h4zm5 2-7 2.917-7-2.917zm-9.6 4-8.4 3.5v-7zm2.6 1.083 7 2.917h-14zm24 0 7 2.917h-14zm8-7.083h-4v-6h4zm-22-34c0-.43.142-.856.399-1.2l1.601-2.133 1.6 2.133c.258.344.4.77.4 1.2 0 1.103-.897 2-2 2s-2-.897-2-2zm-.158-13.372c.519.453 1.11 1.221 1.545 2.422-.235.557-.387 1.2-.387 1.95h2c0-1.229.681-2.022 1.305-2.491.406 1.004 1.169 1.899 1.96 2.829 1.344 1.579 2.735 3.212 2.735 5.662 0 2.407-1.049 3.883-3.317 4.56.204-.48.317-1.007.317-1.56 0-.859-.284-1.711-.8-2.4l-3.2-4.267-3.201 4.267c-.515.689-.799 1.541-.799 2.4 0 .508.105.991.278 1.439-2.22-.836-3.278-2.618-3.278-5.439 0-.984.851-2.153 1.835-3.506 1.156-1.59 2.544-3.498 3.007-5.866zm-22.842 17.372c-2.206 0-4-1.794-4-4s1.794-4 4-4 4 1.794 4 4h2c0-2.933-2.117-5.377-4.903-5.895-.058-.364-.097-.732-.097-1.105 0-3.86 3.141-7 7-7 3.029 0 5.701 1.936 6.647 4.816l.344 1.045 1.008-.441c.764-.335 1.599-.446 2.418-.379-.067.092-.133.184-.199.276-1.141 1.568-2.218 3.048-2.218 4.683 0 2.087.517 4.399 2.344 6h-3.344v2zm17 1.586v-1.586h16v1.586l-2.414 2.414h-11.172zm3 4.414h10v16h-10zm-15 18h4v6h-4z"/><path d="m32 29c-1.654 0-3 1.346-3 3v6c0 1.654 1.346 3 3 3s3-1.346 3-3v-6c0-1.654-1.346-3-3-3zm1 9c0 .551-.448 1-1 1s-1-.449-1-1v-6c0-.551.448-1 1-1s1 .449 1 1z"/><path d="m16 39c2.757 0 5-2.243 5-5 0-2.45-1.771-4.495-4.102-4.919-.519-2.32-2.966-4.081-5.898-4.081s-5.379 1.761-5.898 4.081c-2.331.424-4.102 2.469-4.102 4.919 0 2.757 2.243 5 5 5zm-13-5c0-1.654 1.346-3 3-3h1v-1c0-1.654 1.794-3 4-3s4 1.346 4 3v1h1c1.654 0 3 1.346 3 3s-1.346 3-3 3h-10c-1.654 0-3-1.346-3-3z"/><path d="m48 26h10c2.757 0 5-2.243 5-5 0-2.45-1.771-4.495-4.102-4.919-.519-2.32-2.966-4.081-5.898-4.081s-5.379 1.761-5.898 4.081c-2.331.424-4.102 2.469-4.102 4.919 0 2.757 2.243 5 5 5zm0-8h1v-1c0-1.654 1.794-3 4-3s4 1.346 4 3v1h1c1.654 0 3 1.346 3 3s-1.346 3-3 3h-10c-1.654 0-3-1.346-3-3s1.346-3 3-3z"/></svg>