<?xml version="1.0"?>
<svg xmlns="http://www.w3.org/2000/svg" viewBox="0 0 512 512" width="512" height="512"><g id="Out_line" data-name="Out line"><path d="M416,440v8a7.9979,7.9979,0,0,1-8,8V440Z"/><rect x="408" y="440" width="24" height="16"/><path d="M447.68994,50.2a8.01221,8.01221,0,0,0-2.03-7.86l-24-24a8.00628,8.00628,0,0,0-13.34985,3.46,160.76793,160.76793,0,0,1-60.21,85.81l-91.26,65.91-11.18018-11.18a8.015,8.015,0,0,0-11.31982,0l-48,48a8.015,8.015,0,0,0,0,11.32L235.72,271.03c.37012.36987.73.74,1.09009,1.11987-26.43994.74011-51.03,4.05-70.2002,9.53C140.99,289,128,299.2,128,312v64a16.02116,16.02116,0,0,1-16,16,32.036,32.036,0,0,0-32,32v16H64v16h64v16a7.9979,7.9979,0,0,0,8,8h72a7.9979,7.9979,0,0,0,8-8v-8a8.01066,8.01066,0,0,1,8-8h33.37988A24.02187,24.02187,0,0,0,280,472a8.01066,8.01066,0,0,1,8,8v8a7.9979,7.9979,0,0,0,8,8h72a7.9979,7.9979,0,0,0,8-8V456h32V440h8V424a32.036,32.036,0,0,0-32-32,16.02116,16.02116,0,0,1-16-16V312c0-15.04-18.31006-24.36-37.49-29.99a133.89911,133.89911,0,0,0,21.08008-39.48A7.99881,7.99881,0,0,0,344,232a68.79459,68.79459,0,0,1-48.97-20.28l-2.73-2.73L381.47,144.58A176.80448,176.80448,0,0,0,447.68994,50.2ZM384,408a16.02116,16.02116,0,0,1,16,16v16H371.7A32.01717,32.01717,0,0,0,344,424a16.02116,16.02116,0,0,1-16-16V384H312v24a32.036,32.036,0,0,0,32,32,16.02116,16.02116,0,0,1,16,16v24H304a24.03189,24.03189,0,0,0-24-24,8.01074,8.01074,0,0,1-8-8V408H256v32h-9.37988A23.59674,23.59674,0,0,0,248,432V392H232v40a8.01074,8.01074,0,0,1-8,8,24.03189,24.03189,0,0,0-24,24H144V440a16.02116,16.02116,0,0,1,16-16,32.036,32.036,0,0,0,32-32V368H176v24a16.02116,16.02116,0,0,1-16,16,32.036,32.036,0,0,0-32,32H96V424a16.02116,16.02116,0,0,1,16-16,32.036,32.036,0,0,0,32-32V333.38a105.27392,105.27392,0,0,0,22.60986,8.94007C188.46,348.56006,217.35986,352,248,352s59.54-3.43994,81.39014-9.67993A105.27392,105.27392,0,0,0,352,333.38V376A32.036,32.036,0,0,0,384,408Zm-32-96c0,1.87-4.96,8.64-27,14.93994C304.54,332.78,277.18994,336,248,336s-56.54-3.22-77-9.06006C148.96,320.64,144,313.87,144,312s4.96-8.64,27-14.93994C191.46,291.22,218.81006,288,248,288h.2a68.88049,68.88049,0,0,1,7.8,32,7.99658,7.99658,0,0,0,8,8,8.168,8.168,0,0,0,2.53-.41A134.60963,134.60963,0,0,0,318.7,295.39C346.21,302.08,352,310.12,352,312Zm-80.74-3.3501a81.13523,81.13523,0,0,0-1.55-8.3999,138.357,138.357,0,0,0,54.54-54.54,81.20169,81.20169,0,0,0,8.3999,1.55A119.30148,119.30148,0,0,1,271.26,308.6499ZM308.84009,240.46A122.46875,122.46875,0,0,1,264.46,284.84,84.961,84.961,0,0,0,247.03,259.72l-43.72-43.72L240,179.31l43.72,43.72A84.96214,84.96214,0,0,0,308.84009,240.46Zm-28-42.94-12.54-12.53L357.47,120.58A176.8787,176.8787,0,0,0,419.54,38.86L430.96,50.27a160.79141,160.79141,0,0,1-58.85986,81.34Z"/></g></svg>
