<?xml version="1.0"?>
<svg xmlns="http://www.w3.org/2000/svg" id="Outline" viewBox="0 0 512 512" width="512" height="512"><path d="M72,272H88.551L101.9,458.85A40.142,40.142,0,0,0,141.8,496H354.2a40.142,40.142,0,0,0,39.9-37.15L407.449,272H424a8,8,0,0,0,8-8V232a24.028,24.028,0,0,0-24-24H391.945l55.57-144.254a8,8,0,0,0-4.59-10.341l-52.76-20.321a8,8,0,0,0-10.34,4.59l-35.825,93V24a8,8,0,0,0-8-8H288a8,8,0,0,0-8,8V88H208V24a8,8,0,0,0-8-8H152a8,8,0,0,0-8,8V80H128a8,8,0,0,0-8,8v27.35A40.052,40.052,0,0,0,96,152v56H88a24.028,24.028,0,0,0-24,24v32A8,8,0,0,0,72,272ZM378.144,457.71A24.086,24.086,0,0,1,354.2,480H141.8a24.086,24.086,0,0,1-23.94-22.29L104.592,272H391.408ZM391.88,50.89l37.829,14.57L374.8,208H331.355ZM160,32h32V96a8,8,0,0,0,8,8h88a8,8,0,0,0,8-8V32h32V172.2L314.209,208H304V184a24.027,24.027,0,0,0-24-24V128a8,8,0,0,0-8-8H240a8,8,0,0,0-8,8v32a24.027,24.027,0,0,0-24,24v24H192V152a40.052,40.052,0,0,0-24-36.65V88a8,8,0,0,0-8-8ZM272,176h8a8.009,8.009,0,0,1,8,8v24H224V184a8.009,8.009,0,0,1,8-8h8a8,8,0,0,0,8-8V136h16v32A8,8,0,0,0,272,176Zm-96-16v16H112V160ZM136,96h16v16H136Zm0,32h16a24.039,24.039,0,0,1,22.624,16H113.376A24.039,24.039,0,0,1,136,128Zm-24,64h64v16H112ZM80,232a8.009,8.009,0,0,1,8-8H408a8.009,8.009,0,0,1,8,8v24H80Z"/><path d="M176,440h40a8,8,0,0,0,0-16H189.856l19.415-33.628.858,3.2a8,8,0,1,0,15.455-4.141l-5.856-21.857a8,8,0,0,0-9.8-5.657l-21.857,5.857a8,8,0,1,0,4.141,15.455l3.2-.858L169.072,428A8,8,0,0,0,176,440Z"/><path d="M224,345.569a8,8,0,0,0,10.928-2.928L248,320c3.888,6.735,9.957,17.245,19.415,33.628l-3.2-.858a8,8,0,1,0-4.141,15.455l21.857,5.857a7.994,7.994,0,0,0,9.8-5.657l5.856-21.857a8,8,0,1,0-15.455-4.141l-.858,3.2c-10.614-18.383-26.2-45.374-26.339-45.623A8,8,0,0,0,248,296h0a8,8,0,0,0-6.928,4l-20,34.641A8,8,0,0,0,224,345.569Z"/><path d="M293.072,401.359,306.144,424h-38.83l2.343-2.343a8,8,0,0,0-11.314-11.314l-16,16a8,8,0,0,0,0,11.314l16,16a8,8,0,0,0,11.314-11.314L267.314,440H320a8,8,0,0,0,6.928-12l-20-34.641a8,8,0,1,0-13.856,8Z"/></svg>
